<?xml version="1.0" encoding="UTF-8" standalone="no"?>
<!-- Created with Inkscape (http://www.inkscape.org/) -->

<svg
   xmlns:dc="http://purl.org/dc/elements/1.1/"
   xmlns:cc="http://creativecommons.org/ns#"
   xmlns:rdf="http://www.w3.org/1999/02/22-rdf-syntax-ns#"
   xmlns:svg="http://www.w3.org/2000/svg"
   xmlns="http://www.w3.org/2000/svg"
   xmlns:sodipodi="http://sodipodi.sourceforge.net/DTD/sodipodi-0.dtd"
   xmlns:inkscape="http://www.inkscape.org/namespaces/inkscape"
   width="1039.4481mm"
   height="1391.1637mm"
   viewBox="0 0 1039.4481 1391.1637"
   version="1.1"
   id="svg8"
   inkscape:version="0.92.4 (5da689c313, 2019-01-14)"
   sodipodi:docname="Hand-04-SIMPLE.svg">
  <defs
     id="defs2" />
  <sodipodi:namedview
     id="base"
     pagecolor="#ffffff"
     bordercolor="#666666"
     borderopacity="1.0"
     inkscape:pageopacity="0.0"
     inkscape:pageshadow="2"
     inkscape:zoom="0.175"
     inkscape:cx="2049.7017"
     inkscape:cy="3239.0125"
     inkscape:document-units="mm"
     inkscape:current-layer="g897"
     showgrid="false"
     inkscape:window-width="1920"
     inkscape:window-height="1001"
     inkscape:window-x="-9"
     inkscape:window-y="-9"
     inkscape:window-maximized="1"
     showguides="false"
     fit-margin-top="0"
     fit-margin-left="0"
     fit-margin-right="0"
     fit-margin-bottom="0" />
  <metadata
     id="metadata5">
    <rdf:RDF>
      <cc:Work
         rdf:about="">
        <dc:format>image/svg+xml</dc:format>
        <dc:type
           rdf:resource="http://purl.org/dc/dcmitype/StillImage" />
        <dc:title></dc:title>
      </cc:Work>
    </rdf:RDF>
  </metadata>
  <g
     inkscape:label="Layer 1"
     inkscape:groupmode="layer"
     id="layer1"
     transform="translate(460.87525,424.66486)">
    <g
       id="g892">
      <g
         id="g910">
        <g
           id="g903">
          <g
             id="g897">
            <path
               style="fill:#ffe0bd;fill-opacity:1;stroke:#ffccaa;stroke-width:5;stroke-linecap:round;stroke-linejoin:round;stroke-miterlimit:4;stroke-dasharray:none;stroke-opacity:0.97911832"
               d="m 15.875,782.32142 c 0,0 9.071429,106.97837 7.559524,150.43451 30.434556,48.73206 321.814286,32.94879 342.980956,3.46665 -4.13087,-43.19922 -7.74992,-71.67125 -1.11404,-96.64565 C 373.99489,697.07991 27.970238,663.25892 15.875,782.32142 Z"
               id="path837"
               inkscape:connector-curvature="0"
               sodipodi:nodetypes="ccccc" />
            <path
               style="fill:#ffe0bd;fill-opacity:1;stroke:#ffccaa;stroke-width:5;stroke-linecap:round;stroke-linejoin:round;stroke-miterlimit:4;stroke-dasharray:none;stroke-opacity:0.97911832"
               d="M 53.241754,793.15924 C -47.364625,757.99727 -151.10353,676.54895 -194.03116,604.54988 -236.95879,532.55081 -333.92651,429.33463 -381.55551,357.31694 -398.2745,331.4596 -458.48026,277.10445 -458.3751,242.76789 c 0.0815,-26.60301 41.58,-53.682 114.16725,-19.25263 66.82903,25.61654 109.08826,64.57592 144.23653,124.00195 15.11401,25.88946 48.14465,80.54979 91.35705,77.38306 43.212395,-3.16673 59.746317,-60.22016 65.473169,-90.40656 5.726852,-30.1864 1.732429,-77.4905 -0.691102,-135.07069 -2.423531,-57.5802 -28.51331,-97.71912 -40.624966,-207.110281 -6.341126,-57.272355 -7.124659,-112.904329 -16.036171,-172.121569 -6.75559,-56.52338 -10.2773,-168.58661 48.964734,-166.7664 64.072515,1.96863 63.653489,103.94098 67.335496,147.8505 6.050151,72.15066 20.406956,128.970725 35.260584,189.2772889 8.590066,34.8761471 9.032132,100.1576681 27.364328,167.5590011 1.254961,4.61406 20.164573,1.60104 19.893252,-3.56622 C 95.019309,91.588157 83.866438,26.973982 76.595646,-49.251605 76.814385,-113.48514 74.63855,-170.18071 70.624005,-231.19865 c 1.877643,-57.91177 -10.409928,-150.9536 31.425745,-181.85453 19.78182,-13.77807 51.85842,-11.7742 66.71589,4.96603 27.26547,46.86443 24.28209,94.94941 23.66841,148.36473 -0.85523,74.44055 16.4591,150.91242 20.57976,212.47927 3.68777,66.188807 -0.67884,135.403707 1.20271,195.03993 0.3973,12.59235 18.63845,15.96079 21.01343,2.36352 8.10124,-46.38131 10.5658,-99.273116 17.56116,-140.6269956 11.06792,-65.4292854 13.52218,-118.2894144 18.75473,-177.5822744 4.01391,-45.48377 -3.21001,-94.33621 9.69307,-136.63824 17.26013,-56.58631 94.13023,-49.91116 103.85849,1.57217 7.37837,39.04737 4.24711,74.71354 4.20359,107.82626 -0.0301,22.89685 -6.31913,71.5737 -7.39475,121.079754 -0.85228,39.226657 -6.7671,80.5182725 -12.34061,119.317948 -7.25447,50.501645 -9.67931,115.852658 -5.22489,147.407688 1.78626,12.65383 14.59974,25.93482 17.98438,18.94275 11.87294,-24.52745 15.77238,-57.49416 28.64369,-97.66082 17.0217,-53.118478 26.74399,-97.730956 44.45845,-145.005519 13.87937,-51.515915 20.51374,-111.012981 51.76971,-129.774421 16.3057,-9.78752 39.32935,-10.48577 56.46659,8.15892 25.98535,28.2711 4.39929,117.900274 -5.6048,175.603945 -7.16085,41.303881 -19.22703,88.817465 -29.39965,133.100225 -16.46587,71.67812 -25.63348,122.32679 -31.5378,182.81236 -19.68108,172.93288 -37.97446,408.1167 -136.07997,504.10355 -5.56488,5.04284 -21.88366,17.17368 -43.91912,10.11897"
               id="path826"
               inkscape:connector-curvature="0"
               sodipodi:nodetypes="czcscczzzscsssssccccscsssasssssssscssssccc" />
            <path
               style="fill:none;stroke:#ffccaa;stroke-width:5;stroke-linecap:round;stroke-linejoin:round;stroke-miterlimit:4;stroke-dasharray:none;stroke-opacity:0.97911832"
               d="M 33.807571,398.6384 C 107.11811,428.18348 190.08992,539.85175 204.19391,632.69051"
               id="path841"
               inkscape:connector-curvature="0"
               sodipodi:nodetypes="cc" />
          </g>
        </g>
      </g>
    </g>
  </g>
</svg>
