<?xml version="1.0" encoding="utf-8"?>
<svg version="1.1" id="Layer_1" xmlns="http://www.w3.org/2000/svg" xmlns:xlink="http://www.w3.org/1999/xlink" x="0px" y="0px"
	 viewBox="0 0 2686.907 996.461" enable-background="new 0 0 2686.907 996.461" xml:space="preserve">
<g>
	<path fill="#E0C016" stroke="#E0C016" d="M1263.21,53.249c14.916,0.065,29.832-0.009,44.747,0.009
		c0.111,25.339-0.167,50.706,0.167,76.027c49.5,0.863,99.12-0.956,148.518,3.397c50.975,4.093,101.496,14.888,149.279,33.201
		c17.719,7.425,34.305,17.227,50.836,26.954c31.836,19.176,62.856,39.68,93.802,60.257c28.764,18.991,57.139,38.621,86.673,56.433
		c14.08,7.889,28.254,15.621,42.176,23.789c18.629,10.702,37.322,21.348,56.897,30.249c16.475,7.37,33.711,13.728,51.764,15.733
		c43.272,2.877,86.478,7.073,129.388,13.486c18.582,2.682,37.146,5.569,55.719,8.391c24.727,3.425,48.943,9.644,73.243,15.278
		c27.669,6.627,55.282,13.468,82.821,20.624c41.527,11.444,82.988,23.177,124.153,35.874c21.107,6.646,42.241,13.319,62.754,21.645
		c7.258,3.165,15.009,6.042,20.661,11.834c8.604,8.4,11.946,20.494,13.691,32.05c-68.49,0.046-136.99,0.037-205.48,0.028
		c-5.086-0.028-10.804,1.522-13.589,6.126c-2.877,4.901-3.007,10.795-3.202,16.317c0.102,8.697-0.074,17.385,0.074,26.073
		c0.353,5.244,0.706,11.008,4.223,15.222c3.017,3.592,7.954,4.613,12.447,4.594c68.694-0.018,137.398-0.028,206.102-0.009
		c4.409,0.065,9.319-0.241,12.781-3.351c3.351-3.044,3.787-7.843,4.214-12.076c9.495,12.614,20.475,23.975,30.509,36.143
		c3.991,4.678,9.365,7.825,13.774,12.066c-50.456,0.056-100.911-0.065-151.358,0.028c-4.27,0.158-8.585-0.371-12.79,0.353
		c-2.469,1.569-1.606,4.91-1.634,7.342c0.39,3.824-0.715,7.741,0.288,11.491c0.631,2.042,2.998,2.144,4.808,2.125
		c52.6-0.009,105.2,0.074,157.809,0.009c3.444-0.139,7.88,0.882,10.052-2.636c1.216,32.217,2.627,64.434,3.805,96.651
		c0.046,2.45,0.269,4.919-0.037,7.37c-0.437,2.088-2.775,2.608-4.576,2.58c-49.156,0.158-98.322-0.167-147.478,0.241
		c-55.709,0-111.427,0-167.137,0c-22.035,0.343-44.079,0.214-66.123,0.223c0.742-29.256-5.049-58.763-17.802-85.169
		c-20.968-44.46-60.619-79.665-107.297-95.138c-34.064-11.435-71.47-12.493-106.183-3.351
		c-30.231,8.019-58.206,24.058-80.631,45.815c-24.207,23.511-41.823,53.816-49.973,86.58c-4.4,16.865-5.996,34.352-5.56,51.746
		c-50.697,0-101.394-0.037-152.082-0.028c-49.5,0.446-99.018,0.167-148.518,0.241c-24.755,0.13-49.509-0.251-74.245,0.241
		c-52.293-0.009-104.587,0.009-156.88,0c-20.411-0.186-40.812,0.334-61.223,0.241c-52.6-0.028-105.209,0.019-157.809-0.009
		c-50.716,0.483-101.441,0.148-152.165,0.232c-23.548,0.13-47.105-0.232-70.653,0.241c-53.166-0.028-106.332,0-159.507-0.009
		c1.077-25.933-3.351-52.08-13.032-76.166c-10.21-25.608-26.323-48.841-46.687-67.413c-22.499-20.364-49.982-35.187-79.433-42.548
		c-38.501-9.449-80.083-6.386-116.56,9.291c-31.428,13.31-58.911,35.661-78.487,63.599c-19.343,27.493-30.936,60.369-32.895,93.931
		c-0.446,6.572-0.343,13.171-0.26,19.752c-43.717-0.083-87.425,0.408-131.142,0.269c-49.203,0.102-98.405-0.214-147.599,0.232
		c-5.55-0.009-11.611,1.754-16.772-0.984c-3.713-2.757-2.831-8.01-2.766-12.039c0.121-25.571,0.009-51.133,0.046-76.705
		c59.394,0.13,118.797,0,178.182,0.009c3.722,0.167,7.425-2.061,8.697-5.606c1.875-5.124,1.596-10.702,1.699-16.067
		c-0.167-5.597,0.251-11.472-2.023-16.726c-1.569-3.546-5.56-5.226-9.272-4.956c-59.032-0.028-118.064-0.056-177.096-0.028
		c0.046-7.917,0.028-15.835,0.019-23.743c-0.186-10.516-3.304-21.079-1.17-31.558c0.631-3.75,3.471-6.85,7.091-7.936
		c9.152-2.914,18.851-1.049,28.244-1.411c13.514-0.872,27.038-2.023,40.58-2.237c17.106,0.195,34.213,0.046,51.319,0.056
		c19.167,0.705,38.362,0.176,57.538,0.371c2.395-6.683,2.71-13.848,3.434-20.856c1.745-19.325-0.028-38.974-5.829-57.519
		c-4.91-16.911-13.273-32.495-21.599-47.913c-8.428-15.018-18.072-30.221-32.69-39.921c-12.029-7.936-27.047-8.892-41.035-8.103
		c-3.388,0.232-6.906,0.084-10.071,1.494c0.715-5.783,1.114-11.723,3.23-17.208c0.705-1.819,1.931-3.954,4.167-3.963
		c8.372-0.613,16.754-1.439,25.172-1.179c46.409,0,92.818,0.009,139.236,0c10.526,0.046,21.07-0.251,31.586,0.52
		c33.405,2.144,66.69,5.977,100.141,7.509c-0.148,0.214-0.446,0.659-0.594,0.872c2.283,3.833,4.465,7.75,6.005,11.955
		c1.467,3.601,2.33,7.769,5.476,10.377c3.657,3.1,8.771,2.859,13.282,3.044c20.188-0.056,41.1-1.067,59.747-9.616
		c6.655-2.72,11.593-8.14,17.013-12.66c25.311-22.954,49.778-46.826,74.338-70.569c29.859-29.2,59.747-58.364,89.114-88.075
		c6.516-7.073,13.746-13.514,19.612-21.162c5.532-6.748,11.779-12.874,17.802-19.176c12.159-7.574,25.107-13.774,38.222-19.529
		c17.208-7.667,34.185-15.992,52.108-21.905c20.615-6.794,42.418-8.604,63.97-9.764c55.886-2.636,111.827-3.62,167.749-4.455
		c62.578-0.705,125.155-1.216,187.752-0.965C1263.405,104.197,1263.033,78.719,1263.21,53.249 M1322.158,175.527
		c-12.271,0.362-24.569-0.167-36.812,0.622c0.399,56.804,0.334,113.627,0.835,170.432c0.083,10.201-0.269,20.42,0.343,30.602
		c-0.083,12.4-0.037,24.801,0.037,37.201c13.7,0.575,27.418,0.093,41.137,0.251c21.032,0.214,42.083-0.288,63.116,0.288
		c26.602-0.037,53.194-0.056,79.795-0.037c26.267,0.659,52.572,0.204,78.858,0.353c47.356,0.26,94.72-0.009,142.076,0.343
		c25.367,0.204,50.753-0.325,76.11,0.343c13.31-0.028,26.62-0.065,39.93,0.009c0.083-5.959-2.905-11.342-5.606-16.457
		c-5.513-9.681-12.243-18.61-19.158-27.326c-11.036-13.607-22.573-26.824-34.881-39.29c-38.473-35.688-78.96-69.622-123.875-96.994
		c-30.686-18.61-63.497-34.046-98.118-43.754c-17.607-4.975-35.651-8.075-53.584-11.519c-25.33-4.706-51.105-7.286-76.862-6.154
		C1371.045,174.701,1346.606,175.249,1322.158,175.527 M1060.403,176.391c-33.21,0.056-66.727,0.39-99.352,7.286
		c-11.324,2.293-22.23,6.739-31.79,13.236c-11.5,7.769-20.8,18.369-28.727,29.674c-8.975,12.735-16.067,26.648-23.826,40.125
		c-12.855,23.353-26.685,46.14-41.128,68.537c-8.53,14.545-16.661,29.321-24.467,44.274c-5.708,11.417-11.834,22.768-15.705,34.974
		c24.272-0.019,48.544-0.121,72.815-0.046c30.008-0.622,60.034,0.241,90.033-0.529c41.48,0.297,82.942-0.278,124.413-0.176
		c24.773,0.084,49.537-0.381,74.301-0.195c26.017,0.009,52.024-0.297,78.041-0.102c0.195-78.719-0.214-157.437,0.13-236.147
		c-27.613-0.854-55.264-0.594-82.877-1.234c-23.511,0.121-47.04-0.882-70.542,0.065
		C1074.613,176.121,1067.494,175.908,1060.403,176.391 M1323.198,437.682c-3.778,0.269-7.797,1.791-9.672,5.291
		c-3.276,6.005-2.673,13.078-2.738,19.668c0.083,4.919,0.585,10.182,3.443,14.35c2.367,3.351,6.72,4.465,10.637,4.344
		c32.477-0.093,64.945-0.037,97.422-0.037c4.084,0.046,8.502-1.624,10.739-5.207c2.645-4.279,3.323-9.477,3.369-14.424
		c0.056-6.637,0.269-13.969-3.843-19.585c-2.998-3.963-8.381-4.576-12.976-4.594
		C1387.446,437.672,1355.313,437.282,1323.198,437.682 M837.984,438.972c-3.267,0.9-5.708,3.722-6.599,6.924
		c-1.68,6.052-1.16,12.4-1.169,18.61c0.343,4.734,0.529,9.959,3.583,13.876c2.673,3.295,7.268,3.713,11.222,3.713
		c32.477-0.111,64.945,0.093,97.421,0.195c3.88,0.148,7.973-1.467,10.136-4.799c2.998-4.659,3.369-10.423,3.304-15.807
		c-0.093-5.903,0.473-12.187-2.32-17.617c-1.494-3.063-4.827-4.827-8.112-5.124c-14.275-0.808-28.569-0.399-42.854-0.492
		c-18.888,0.074-37.768-0.084-56.647-0.158C843.284,438.294,840.546,438.146,837.984,438.972 M1488.84,570.828
		c-0.028,21.135,0.279,42.278-0.083,63.404c-21.459-0.186-42.928-0.046-64.388-0.093c-0.056-21.088,0-42.176-0.009-63.265
		c-21.441-0.046-42.882-0.037-64.313,0.019c-0.056,21.441-0.037,42.891-0.028,64.332c21.506,0,43.012,0.028,64.518,0
		c-0.074,21.06,0.111,42.111-0.065,63.162c21.487,0.111,43.002,0.232,64.49-0.065c-0.241-21.032,0.037-42.065-0.083-63.097
		c21.45,0,42.91,0,64.36,0c0,21.042,0,42.074,0,63.116c21.413,0.037,42.835-0.084,64.258,0.074
		c0.288-21.144,0.121-42.288,0.056-63.432c21.599,0.65,43.244,0.074,64.861,0.288c0.046-21.469-0.037-42.937-0.009-64.406
		c-21.441,0.037-42.891-0.037-64.332,0.028c0.083,21.005-0.176,42.028,0.093,63.032c-21.645,0.046-43.281,0.028-64.926,0.046
		c-0.121-21.06,0.251-42.13-0.186-63.181C1531.648,570.968,1510.244,570.884,1488.84,570.828 M978.705,570.893
		c-0.019,21.469,0,42.937-0.037,64.406c21.459-0.074,42.919-0.084,64.378-0.065c0-21.459-0.102-42.91,0-64.369
		C1021.596,570.912,1000.146,570.931,978.705,570.893 M850.607,571.859c0,21.432-0.009,42.863,0,64.295
		c21.311,0.009,42.622-0.009,63.924,0c0.121,21.274-0.251,42.548,0.084,63.812c21.385-0.093,42.77-0.121,64.156,0.065
		c0.306-21.422-0.148-42.863,0.195-64.286c-21.329-0.659-42.733,0.176-64.081-0.343c0.158-21.2-0.019-42.399,0.074-63.608
		C893.508,571.794,872.057,571.822,850.607,571.859 M1105.076,636.014c-21.088-0.046-42.177,0.028-63.265,0.009
		c0.102,21.543-0.214,43.095,0.158,64.629c21.478-0.251,42.965-0.111,64.453-0.093c0.065-21.459-0.009-42.919,0.074-64.378
		c21.042,0.009,42.084,0.046,63.125-0.056c-0.25-21.469,0.251-42.956-0.278-64.406c-21.311,0.158-42.631,0.176-63.942-0.009
		C1105.002,593.142,1105.475,614.592,1105.076,636.014 M1231.949,571.822c-0.037,21.487,0.056,42.975,0.019,64.462
		c21.422-0.278,42.854-0.102,64.276-0.093c0.056-21.469,0.056-42.937,0.046-64.406
		C1274.84,571.803,1253.399,571.803,1231.949,571.822 M1679.302,636.079c-0.167,21.487,0.056,42.965-0.028,64.453
		c21.459,0.037,42.91,0.009,64.36-0.046c0.009-21.478,0.102-42.956-0.028-64.434
		C1722.175,636.079,1700.734,635.894,1679.302,636.079 M1169.241,701.042c21.478,0.149,42.956,0.102,64.434,0.028
		c-0.065-21.32-0.13-42.65,0.009-63.97c-5.467-0.659-10.99-0.149-16.475-0.297c-15.937-0.046-31.874,0.102-47.801-0.148
		C1169.055,658.105,1169.482,679.583,1169.241,701.042 M1295.455,637.137c0.186,21.441-0.056,42.891,0.102,64.341
		c21.413-0.13,42.835,0.046,64.258-0.028c0.139-21.45-0.093-42.9,0.149-64.341c-8.901-0.455-17.821-0.037-26.732-0.186
		C1320.636,637.017,1308.031,636.71,1295.455,637.137z"/>
	<path fill="#393632" stroke="#393632" d="M1322.158,175.527c24.448-0.278,48.887-0.826,73.344-1.086
		c25.757-1.132,51.532,1.448,76.862,6.154c17.932,3.444,35.976,6.544,53.584,11.519c34.621,9.709,67.432,25.144,98.118,43.754
		c44.914,27.372,85.401,61.306,123.875,96.994c12.308,12.465,23.845,25.683,34.881,39.29c6.915,8.716,13.644,17.645,19.158,27.326
		c2.701,5.114,5.69,10.498,5.606,16.457c-13.31-0.074-26.62-0.037-39.93-0.009c-25.358-0.668-50.743-0.139-76.11-0.343
		c-47.356-0.353-94.72-0.084-142.076-0.343c-26.286-0.148-52.59,0.306-78.858-0.353c-26.602-0.019-53.194,0-79.795,0.037
		c-21.032-0.575-42.083-0.074-63.116-0.288c-13.719-0.158-27.437,0.325-41.137-0.251c-0.074-12.4-0.121-24.801-0.037-37.201
		c-0.613-10.182-0.26-20.401-0.343-30.602c-0.501-56.804-0.436-113.627-0.835-170.432
		C1297.589,175.36,1309.888,175.889,1322.158,175.527z"/>
	<path fill="#393632" stroke="#393632" d="M1060.403,176.391c7.091-0.483,14.21-0.269,21.32-0.26
		c23.501-0.947,47.031,0.056,70.542-0.065c27.613,0.64,55.264,0.381,82.877,1.234c-0.344,78.709,0.065,157.428-0.13,236.147
		c-26.017-0.195-52.024,0.111-78.041,0.102c-24.764-0.186-49.528,0.278-74.301,0.195c-41.471-0.102-82.933,0.473-124.413,0.176
		c-29.999,0.77-60.025-0.093-90.033,0.529c-24.272-0.074-48.544,0.028-72.815,0.046c3.87-12.206,9.996-23.557,15.705-34.974
		c7.806-14.953,15.937-29.729,24.467-44.274c14.442-22.397,28.272-45.184,41.128-68.537c7.76-13.477,14.851-27.39,23.826-40.125
		c7.927-11.305,17.227-21.905,28.727-29.674c9.56-6.497,20.466-10.943,31.79-13.236
		C993.676,176.78,1027.193,176.446,1060.403,176.391z"/>
	<path fill="#393632" stroke="#393632" d="M723.354,193.014c9.653-3.221,19.51-7.156,29.859-6.748
		c-6.024,6.302-12.271,12.428-17.802,19.176c-5.866,7.648-13.097,14.09-19.612,21.162c-29.367,29.711-59.255,58.874-89.114,88.075
		c-24.56,23.743-49.026,47.615-74.338,70.569c-5.421,4.52-10.358,9.941-17.013,12.66c-18.647,8.548-39.559,9.56-59.747,9.616
		c-4.511-0.186-9.625,0.056-13.282-3.044c-3.147-2.608-4.01-6.776-5.476-10.377c-1.541-4.205-3.722-8.122-6.005-11.955
		c0.148-0.214,0.446-0.659,0.594-0.872c4.91-4.205,10.117-8.066,15.018-12.298c7.945-7.667,16.772-14.331,25.395-21.209
		c31.01-24.355,62.754-47.755,93.774-72.101c14.275-10.293,28.838-20.188,43.42-30.045c15.779-10.544,31.539-21.153,47.727-31.075
		C691.23,205.303,707.39,199.149,723.354,193.014z"/>
	<path fill="#393632" stroke="#393632" d="M157.955,394.104c13.988-0.789,29.006,0.167,41.035,8.103
		c14.619,9.699,24.263,24.903,32.69,39.921c8.326,15.417,16.689,31.001,21.599,47.913c5.801,18.545,7.574,38.194,5.829,57.519
		c-0.724,7.008-1.04,14.173-3.434,20.856c-19.176-0.195-38.371,0.334-57.538-0.371c-17.106-0.009-34.213,0.139-51.319-0.056
		c0.325-45.963,0.306-91.936,0.102-137.899c-0.158-9.913,0.455-19.826-0.084-29.72c-0.056-1.643-0.074-3.453,1.049-4.771
		C151.05,394.187,154.567,394.336,157.955,394.104z"/>
	<path fill="#393632" stroke="#393632" d="M1323.198,437.682c32.115-0.399,64.248-0.009,96.382-0.195
		c4.594,0.019,9.978,0.631,12.976,4.594c4.112,5.615,3.898,12.948,3.843,19.585c-0.046,4.947-0.724,10.145-3.369,14.424
		c-2.237,3.583-6.655,5.253-10.739,5.207c-32.477,0-64.945-0.056-97.422,0.037c-3.917,0.121-8.27-0.993-10.637-4.344
		c-2.859-4.168-3.36-9.43-3.443-14.35c0.065-6.59-0.538-13.663,2.738-19.668C1315.401,439.473,1319.42,437.951,1323.198,437.682z"/>
	<path fill="#393632" stroke="#393632" d="M837.984,438.972c2.562-0.826,5.3-0.678,7.964-0.678
		c18.879,0.074,37.758,0.232,56.647,0.158c14.285,0.093,28.579-0.316,42.854,0.492c3.286,0.297,6.618,2.061,8.112,5.124
		c2.794,5.43,2.228,11.714,2.32,17.617c0.065,5.383-0.306,11.147-3.304,15.807c-2.163,3.332-6.256,4.947-10.136,4.799
		c-32.477-0.102-64.945-0.306-97.421-0.195c-3.954,0-8.549-0.418-11.222-3.713c-3.054-3.917-3.239-9.143-3.583-13.876
		c0.009-6.21-0.511-12.558,1.169-18.61C832.276,442.694,834.717,439.872,837.984,438.972z"/>
	<path fill="#393632" stroke="#393632" d="M2331.43,544.635c2.784-4.604,8.502-6.154,13.589-6.126
		c68.49,0.009,136.99,0.019,205.48-0.028c4.724-0.102,10.182,0.083,13.719,3.703c3.573,3.759,3.694,9.282,3.973,14.155
		c-0.009,7.416-0.761,14.832-0.251,22.239c-0.074,4.279,0.52,8.558,0.13,12.827c-0.427,4.232-0.863,9.031-4.214,12.076
		c-3.462,3.109-8.372,3.416-12.781,3.351c-68.704-0.019-137.407-0.009-206.102,0.009c-4.492,0.019-9.43-1.002-12.447-4.594
		c-3.518-4.214-3.871-9.978-4.223-15.222c-0.149-8.688,0.028-17.375-0.074-26.073C2328.423,555.43,2328.553,549.536,2331.43,544.635
		z"/>
	<path fill="#393632" stroke="#393632" d="M1488.84,570.828c21.404,0.056,42.807,0.139,64.211-0.037
		c0.436,21.051,0.065,42.121,0.186,63.181c21.645-0.019,43.281,0,64.926-0.046c-0.269-21.005-0.009-42.028-0.093-63.032
		c21.441-0.065,42.891,0.009,64.332-0.028c-0.028,21.469,0.056,42.937,0.009,64.406c-21.617-0.213-43.262,0.362-64.861-0.288
		c0.065,21.144,0.232,42.288-0.056,63.432c-21.422-0.158-42.845-0.037-64.258-0.074c0-21.042,0-42.074,0-63.116
		c-21.45,0-42.91,0-64.36,0c0.121,21.032-0.158,42.065,0.083,63.097c-21.487,0.297-43.002,0.176-64.49,0.065
		c0.176-21.051-0.009-42.102,0.065-63.162c-21.506,0.028-43.012,0-64.518,0c-0.009-21.441-0.028-42.891,0.028-64.332
		c21.432-0.056,42.873-0.065,64.313-0.019c0.009,21.088-0.047,42.176,0.009,63.265c21.459,0.046,42.928-0.093,64.388,0.093
		C1489.119,613.107,1488.812,591.963,1488.84,570.828z"/>
	<path fill="#393632" stroke="#393632" d="M978.705,570.893c21.441,0.037,42.891,0.019,64.341-0.028c-0.102,21.459,0,42.91,0,64.369
		c-21.459-0.019-42.919-0.009-64.378,0.065C978.705,613.831,978.686,592.362,978.705,570.893z"/>
	<path fill="#393632" stroke="#393632" d="M850.607,571.859c21.45-0.037,42.9-0.065,64.35-0.065
		c-0.093,21.209,0.084,42.408-0.074,63.608c21.348,0.52,42.752-0.316,64.081,0.343c-0.343,21.422,0.111,42.863-0.195,64.286
		c-21.385-0.186-42.77-0.158-64.156-0.065c-0.334-21.264,0.037-42.538-0.084-63.812c-21.302-0.009-42.613,0.009-63.924,0
		C850.598,614.722,850.607,593.29,850.607,571.859z"/>
	<path fill="#393632" stroke="#393632" d="M1105.076,636.014c0.399-21.422-0.074-42.872,0.325-64.304
		c21.311,0.186,42.631,0.167,63.942,0.009c0.529,21.45,0.028,42.938,0.278,64.406c-21.042,0.102-42.083,0.065-63.125,0.056
		c-0.083,21.459-0.009,42.919-0.074,64.378c-21.487-0.019-42.974-0.158-64.453,0.093c-0.371-21.534-0.056-43.086-0.158-64.629
		C1062.9,636.042,1083.988,635.968,1105.076,636.014z"/>
	<path fill="#393632" stroke="#393632" d="M1231.949,571.822c21.45-0.019,42.891-0.019,64.341-0.037
		c0.009,21.469,0.009,42.937-0.046,64.406c-21.422-0.009-42.854-0.186-64.276,0.093
		C1232.004,614.796,1231.912,593.309,1231.949,571.822z"/>
	<path fill="#393632" stroke="#393632" d="M481.74,590.19c36.477-15.677,78.06-18.74,116.56-9.291
		c29.451,7.361,56.934,22.183,79.433,42.548c20.364,18.573,36.477,41.805,46.687,67.413c9.681,24.086,14.108,50.233,13.032,76.166
		c-1.364,38.436-15.445,76.25-39.383,106.332c-22.369,28.43-53.352,49.992-87.805,61.028c-43.448,14.09-92.149,11.24-133.574-8.047
		c-45.063-20.596-80.918-60.257-96.846-107.177c-5.736-16.642-9.003-34.11-9.746-51.69c-0.084-6.581-0.186-13.18,0.26-19.752
		c1.958-33.563,13.551-66.439,32.895-93.931C422.829,625.851,450.312,603.5,481.74,590.19 M543.798,679.416
		c-27.335,3.202-52.312,21.599-63.376,46.799c-7.667,16.689-9.05,36.023-4.483,53.769c6.785,26.286,27.799,48.414,53.862,56.21
		c16.559,5.123,34.807,4.743,51.133-1.067c19.492-6.906,36.143-21.626,45.082-40.301c12.772-25.516,10.526-57.918-5.996-81.234
		c-10.813-15.77-27.418-27.437-45.926-32.189C564.246,678.72,553.897,678.516,543.798,679.416z"/>
	<path fill="#393632" stroke="#393632" d="M2006.698,581.735c34.714-9.143,72.119-8.084,106.183,3.351
		c46.678,15.473,86.33,50.678,107.297,95.138c12.753,26.407,18.545,55.913,17.802,85.169c-1.207,45.304-20.179,89.736-51.857,122.12
		c-16.902,17.338-37.183,31.419-59.478,40.895c-26.146,11.268-54.985,16.197-83.387,14.452
		c-30.639-1.689-60.777-11.352-86.747-27.697c-22.991-14.433-42.733-34.008-57.333-56.897
		c-17.608-27.474-27.688-59.765-28.644-92.391c-0.436-17.394,1.16-34.881,5.56-51.746c8.15-32.765,25.766-63.07,49.973-86.58
		C1948.492,605.793,1976.467,589.754,2006.698,581.735 M2045.431,679.277c-23.808,2.515-46.075,16.252-58.921,36.459
		c-8.558,13.217-13.041,29.043-12.642,44.785c-0.055,25.98,13.774,51.375,35.41,65.706c15.519,10.646,34.909,15.185,53.574,13.171
		c24.3-2.395,47.059-16.781,59.747-37.638c15.009-23.622,16.067-55.208,2.933-79.888c-7.76-14.758-20.188-27.001-35.104-34.454
		C2076.645,680.27,2060.792,677.931,2045.431,679.277z"/>
	<path fill="#393632" stroke="#393632" d="M64.098,641.825c0.687-3.796,3.954-7.063,7.954-6.952
		c59.032-0.028,118.064,0,177.096,0.028c3.713-0.269,7.704,1.411,9.272,4.956c2.274,5.253,1.856,11.129,2.023,16.726
		c-0.102,5.365,0.176,10.943-1.699,16.067c-1.272,3.546-4.975,5.773-8.697,5.606c-59.385-0.009-118.788,0.121-178.182-0.009
		c-2.924-0.074-5.745-1.819-6.924-4.529c-2.172-4.799-1.244-10.182-1.429-15.278C63.745,652.916,62.938,647.273,64.098,641.825z"/>
	<path fill="#393632" stroke="#393632" d="M1679.302,636.079c21.432-0.186,42.873,0,64.304-0.028
		c0.13,21.478,0.037,42.956,0.028,64.434c-21.45,0.056-42.9,0.084-64.36,0.046C1679.358,679.045,1679.135,657.567,1679.302,636.079z
		"/>
	<path fill="#393632" stroke="#393632" d="M1169.241,701.042c0.241-21.459-0.186-42.937,0.167-64.388
		c15.928,0.251,31.864,0.102,47.801,0.148c5.486,0.148,11.008-0.362,16.475,0.297c-0.139,21.32-0.074,42.65-0.009,63.97
		C1212.197,701.145,1190.719,701.191,1169.241,701.042z"/>
	<path fill="#393632" stroke="#393632" d="M1295.455,637.137c12.577-0.427,25.181-0.121,37.777-0.214
		c8.911,0.148,17.83-0.269,26.732,0.186c-0.241,21.441-0.009,42.891-0.149,64.341c-21.422,0.074-42.845-0.102-64.258,0.028
		C1295.399,680.029,1295.64,658.578,1295.455,637.137z"/>
	<path fill="#393632" stroke="#393632" d="M2448.204,639.996c4.205-0.724,8.521-0.195,12.79-0.353
		c50.447-0.093,100.902,0.028,151.358-0.028c2.766,2.255,6.562,3.963,7.63,7.685c0.446,3.648,0.39,7.425-0.455,11.027
		c-2.172,3.518-6.609,2.497-10.052,2.636c-52.609,0.065-105.209-0.018-157.809-0.009c-1.81,0.019-4.177-0.083-4.808-2.125
		c-1.002-3.75,0.102-7.667-0.288-11.491C2446.598,644.906,2445.735,641.565,2448.204,639.996z"/>
	<path fill="#E0C016" stroke="#E0C016" d="M543.798,679.416c10.099-0.9,20.448-0.696,30.296,1.986
		c18.508,4.752,35.113,16.419,45.926,32.189c16.522,23.316,18.768,55.719,5.996,81.234c-8.938,18.675-25.59,33.396-45.082,40.301
		c-16.327,5.81-34.575,6.191-51.133,1.067c-26.063-7.797-47.077-29.924-53.862-56.21c-4.567-17.747-3.184-37.081,4.483-53.769
		C491.486,701.015,516.464,682.618,543.798,679.416z"/>
	<path fill="#E0C016" stroke="#E0C016" d="M2045.431,679.277c15.361-1.346,31.214,0.993,44.998,8.14
		c14.916,7.453,27.344,19.696,35.104,34.454c13.134,24.68,12.076,56.266-2.933,79.888c-12.688,20.856-35.447,35.243-59.747,37.638
		c-18.666,2.014-38.055-2.525-53.574-13.171c-21.636-14.331-35.466-39.726-35.41-65.706c-0.399-15.742,4.084-31.567,12.642-44.785
		C1999.356,695.529,2021.623,681.792,2045.431,679.277z"/>
</g>
</svg>
